<svg width="18" height="17" viewBox="0 0 18 17" fill="none" xmlns="http://www.w3.org/2000/svg">
<path d="M4.04167 14.875C3.65208 14.875 3.31858 14.7363 3.04115 14.4589C2.76372 14.1814 2.625 13.8479 2.625 13.4583V3.54167C2.625 3.15209 2.76372 2.81858 3.04115 2.54115C3.31858 2.26372 3.65208 2.125 4.04167 2.125H6.99896C7.12882 1.71181 7.38264 1.3724 7.76042 1.10677C8.13819 0.841148 8.55139 0.708336 9 0.708336C9.47222 0.708336 9.89427 0.841148 10.2661 1.10677C10.638 1.3724 10.8889 1.71181 11.0188 2.125H13.9583C14.3479 2.125 14.6814 2.26372 14.9589 2.54115C15.2363 2.81858 15.375 3.15209 15.375 3.54167V13.4583C15.375 13.8479 15.2363 14.1814 14.9589 14.4589C14.6814 14.7363 14.3479 14.875 13.9583 14.875H4.04167ZM4.04167 13.4583H13.9583V3.54167H12.5417V5.66667H5.45833V3.54167H4.04167V13.4583ZM9 3.54167C9.20069 3.54167 9.36892 3.47379 9.50469 3.33802C9.64045 3.20226 9.70833 3.03403 9.70833 2.83334C9.70833 2.63264 9.64045 2.46441 9.50469 2.32865C9.36892 2.19288 9.20069 2.125 9 2.125C8.79931 2.125 8.63108 2.19288 8.49531 2.32865C8.35955 2.46441 8.29167 2.63264 8.29167 2.83334C8.29167 3.03403 8.35955 3.20226 8.49531 3.33802C8.63108 3.47379 8.79931 3.54167 9 3.54167Z" fill="#4E7F9D"/>
</svg>
