<svg width="23" height="24" viewBox="0 0 23 24" fill="none" xmlns="http://www.w3.org/2000/svg">
<path d="M19.4832 4.31617C17.9944 3.61959 16.4024 3.11334 14.7381 2.82507C14.5337 3.19462 14.2949 3.69166 14.1303 4.08706C12.3611 3.82099 10.6081 3.82099 8.87144 4.08706C8.70683 3.69166 8.46262 3.19462 8.25639 2.82507C6.59027 3.11334 4.99652 3.62145 3.50768 4.31986C0.504699 8.85777 -0.309361 13.283 0.0976701 17.6453C2.08941 19.1327 4.01964 20.0362 5.9173 20.6275C6.38584 19.9826 6.80372 19.2971 7.16371 18.5747C6.4781 18.3142 5.82142 17.9927 5.20095 17.6195C5.36556 17.4975 5.52657 17.37 5.68213 17.2388C9.4666 19.0089 13.5785 19.0089 17.3178 17.2388C17.4752 17.37 17.6362 17.4975 17.799 17.6195C17.1767 17.9945 16.5182 18.316 15.8326 18.5766C16.1926 19.2971 16.6087 19.9845 17.079 20.6293C18.9785 20.0381 20.9105 19.1346 22.9022 17.6453C23.3798 12.5882 22.0864 8.20368 19.4832 4.31617ZM7.67929 14.9625C6.54323 14.9625 5.61157 13.9019 5.61157 12.6104C5.61157 11.3189 6.52334 10.2565 7.67929 10.2565C8.83528 10.2565 9.76691 11.317 9.74702 12.6104C9.74881 13.9019 8.83528 14.9625 7.67929 14.9625ZM15.3206 14.9625C14.1846 14.9625 13.2529 13.9019 13.2529 12.6104C13.2529 11.3189 14.1646 10.2565 15.3206 10.2565C16.4766 10.2565 17.4082 11.317 17.3883 12.6104C17.3883 13.9019 16.4766 14.9625 15.3206 14.9625Z" fill="white"/>
</svg>
