<svg width="24" height="24" viewBox="0 0 24 24" fill="none" xmlns="http://www.w3.org/2000/svg">
<path fill-rule="evenodd" clip-rule="evenodd" d="M10.56 0C8.96942 0 7.68 1.40154 7.68 3.13044V20.8696C7.68 22.5985 8.96942 24 10.56 24H21.12C22.7106 24 24 22.5985 24 20.8696V3.13043C24 1.40154 22.7106 0 21.12 0H10.56ZM21.12 2.08696H10.56C10.0298 2.08696 9.6 2.55414 9.6 3.13044V20.8696C9.6 21.4459 10.0298 21.913 10.56 21.913H21.12C21.6502 21.913 22.08 21.4459 22.08 20.8696V3.13043C22.08 2.55414 21.6502 2.08696 21.12 2.08696Z" fill="#4E7F9D"/>
<path d="M5.28 4.03431C5.56694 3.85389 5.76 3.51667 5.76 3.13043C5.76 2.55414 5.33019 2.08696 4.8 2.08696V3.13043C4.8 2.08696 4.80047 2.08696 4.8 2.08696L4.7981 2.08696L4.79613 2.08696L4.79203 2.08699L4.78314 2.08711L4.76263 2.08766C4.74779 2.0882 4.73046 2.08911 4.71098 2.09063C4.67233 2.09363 4.62339 2.09912 4.56718 2.10931C4.4593 2.12885 4.3008 2.16988 4.13067 2.26234C3.95679 2.35684 3.7537 2.51498 3.59623 2.77173C3.43475 3.035 3.36 3.33915 3.36 3.65217V20.3478C3.36 20.6609 3.43475 20.965 3.59623 21.2283C3.7537 21.485 3.95679 21.6432 4.13067 21.7377C4.3008 21.8301 4.4593 21.8712 4.56718 21.8907C4.62339 21.9009 4.67233 21.9064 4.71098 21.9094C4.73046 21.9109 4.74779 21.9118 4.76263 21.9123L4.78314 21.9129L4.79203 21.913L4.79613 21.913L4.7981 21.913C4.79857 21.913 4.8 21.913 4.8 20.8696V21.913C5.33019 21.913 5.76 21.4459 5.76 20.8696C5.76 20.4833 5.56694 20.1461 5.28 19.9657V4.03431Z" fill="#4E7F9D"/>
<path d="M2.4 5.73913C2.4 6.12536 2.20694 6.46259 1.92 6.64301V17.357C2.20694 17.5374 2.4 17.8746 2.4 18.2609C2.4 18.8372 1.97019 19.3043 1.44 19.3043V18.2609C1.44 19.3043 1.44047 19.3043 1.44 19.3043L1.4381 19.3043L1.43613 19.3043L1.43203 19.3043L1.42314 19.3042L1.40263 19.3036C1.38779 19.3031 1.37046 19.3022 1.35098 19.3007C1.31233 19.2977 1.26339 19.2922 1.20718 19.282C1.0993 19.2625 0.940801 19.2214 0.770675 19.129C0.59679 19.0345 0.393702 18.8763 0.236232 18.6196C0.0747548 18.3563 0 18.0522 0 17.7391V6.26087C0 5.94784 0.0747548 5.6437 0.236232 5.38042C0.393702 5.12368 0.59679 4.96554 0.770675 4.87103C0.940801 4.77857 1.0993 4.73754 1.20718 4.718C1.26339 4.70782 1.31233 4.70232 1.35098 4.69932C1.37046 4.69781 1.38779 4.6969 1.40263 4.69636L1.42314 4.6958L1.43203 4.69569L1.43613 4.69566L1.4381 4.69565C1.43857 4.69565 1.44 4.69565 1.44 5.73913V4.69565C1.97019 4.69565 2.4 5.16283 2.4 5.73913Z" fill="#4E7F9D"/>
</svg>
